<svg width="51" height="57" viewBox="0 0 51 57" fill="none" xmlns="http://www.w3.org/2000/svg">
<path fill-rule="evenodd" clip-rule="evenodd" d="M4.29776 10.7412C4.29776 7.05829 7.06038 4.29648 10.7444 4.29648H28.7949C32.4326 4.29648 35.2416 7.29789 35.2416 10.7412V34.8015C35.2416 38.4845 32.479 41.2462 28.7949 41.2462H10.7444C7.06038 41.2462 4.29776 38.4845 4.29776 34.8015V10.7412ZM10.7444 0C4.68679 0 0 4.6854 0 10.7412V34.8015C0 40.8573 4.68679 45.5427 10.7444 45.5427H11.4607V46.2588C11.4607 52.3145 16.1475 57 22.205 57H40.2556C46.3132 57 51 52.3145 51 46.2588V22.1985C51 16.1427 46.3132 11.4573 40.2556 11.4573H39.5393V10.7412C39.5393 5.01866 34.8989 0 28.7949 0H10.7444ZM39.5393 15.7538V34.8015C39.5393 40.8573 34.8525 45.5427 28.7949 45.5427H15.7584V46.2588C15.7584 49.9417 18.5211 52.7035 22.205 52.7035H40.2556C43.9396 52.7035 46.7022 49.9417 46.7022 46.2588V22.1985C46.7022 18.5156 43.9396 15.7538 40.2556 15.7538H39.5393Z" fill="black"/>
</svg>
