<svg width="57" height="57" viewBox="0 0 57 57" fill="none" xmlns="http://www.w3.org/2000/svg">
<path fill-rule="evenodd" clip-rule="evenodd" d="M4.38462 28.5C4.38462 15.1816 15.1814 4.38462 28.5 4.38462C41.8184 4.38462 52.6154 15.1816 52.6154 28.5C52.6154 41.8186 41.8184 52.6154 28.5 52.6154C15.1814 52.6154 4.38462 41.8186 4.38462 28.5ZM28.5 0C12.7599 0 0 12.7598 0 28.5C0 44.2401 12.7599 57 28.5 57C44.2402 57 57 44.2401 57 28.5C57 12.7598 44.2402 0 28.5 0Z" fill="white"/>
<path fill-rule="evenodd" clip-rule="evenodd" d="M28.4994 17.5385C27.2887 17.5385 26.3071 18.5201 26.3071 19.7308V39.0231C26.3071 40.2339 27.2887 41.2154 28.4994 41.2154C29.7102 41.2154 30.6917 40.2339 30.6917 39.0231V19.7308C30.6917 18.5201 29.7102 17.5385 28.4994 17.5385Z" fill="white"/>
<path fill-rule="evenodd" clip-rule="evenodd" d="M18.1807 29.873C17.3245 30.7291 17.3245 32.117 18.1807 32.9732L25.4885 40.281C26.9292 41.7217 29.194 41.7217 30.6348 40.281L37.9425 32.9732C38.7987 32.117 38.7987 30.7291 37.9425 29.873C37.0863 29.0168 35.6985 29.0168 34.8423 29.873L28.0616 36.6535L21.2811 29.873C20.4249 29.0168 19.0368 29.0168 18.1807 29.873Z" fill="white"/>
</svg>
