<svg width="85" height="85" viewBox="0 0 85 85" fill="none" xmlns="http://www.w3.org/2000/svg">
<path d="M84.1956 75.2904L81.7523 66.7983C80.9809 64.096 78.2799 62.5523 75.579 63.3242L74.5499 63.582L74.1634 62.0382L72.3627 62.5523L72.7492 64.096L71.5913 64.3538C68.8903 65.1257 67.3474 67.9569 68.1189 70.5303L70.5621 79.0223C71.5913 82.7527 75.5775 85.0699 79.4364 83.9113C83.0376 83.0105 85.3521 79.0223 84.1956 75.2904ZM78.7937 82.2387C75.964 83.0106 73.1357 81.3379 72.3627 78.6356L69.9195 70.1436C69.4057 68.471 70.4333 66.7983 72.1066 66.2842L73.2646 66.0265L73.6511 67.5702C72.3658 68.3421 71.8504 69.8858 72.2369 71.3021C72.7508 73.1037 74.5514 74.1333 76.352 73.6177C78.1526 73.1037 79.1817 71.3021 78.6664 69.5006C78.2799 68.2147 77.1235 67.0561 75.5805 67.0561L75.194 65.5124L76.352 65.2546C78.0238 64.7405 79.6956 65.7687 80.2094 67.4428L82.6526 75.9349C83.1665 78.5067 81.4947 81.4668 78.7937 82.2387ZM76.737 69.8858C76.9946 70.6577 76.4793 71.4295 75.7078 71.6873C74.9364 71.9451 74.1649 71.4295 73.9072 70.6577C73.6496 69.8858 74.1649 69.1139 74.9364 68.8561C75.7078 68.7272 76.6081 69.1139 76.737 69.8858ZM79.0514 5.42359H5.36248V51.2291H79.0514V5.42511V5.42359ZM77.122 49.2986H7.29193V7.35401H77.1235V49.2986H77.122ZM23.4945 38.8777L12.8196 28.3278L23.4945 17.9054L22.0788 16.4905L10.1187 28.3278L22.0788 40.1651L23.4945 38.8792V38.8777ZM62.4609 40.1651L74.421 28.3278L62.4609 16.4905L61.0467 17.9054L71.5913 28.3278L61.0467 38.8777L62.4609 40.1636V40.1651ZM49.0866 33.3457H60.5329V35.2762H49.0866V33.3457ZM39.4408 33.3457H46.128V35.2762H39.4408V33.3457ZM31.0819 33.3457H36.6111V35.2762H31.0819V33.3457ZM23.881 33.3457H27.7383V35.2762H23.881V33.3457ZM58.0897 27.4271H60.5329V29.3575H58.0897V27.4271ZM43.9424 27.4271H55.1311V29.3575H43.9424V27.4271ZM33.3979 27.4271H41.1141V29.3575H33.3979V27.4271ZM23.881 27.4271H30.0543V29.3575H23.881V27.4271ZM51.401 21.3795H60.5314V23.31H51.401V21.3795ZM37.1264 21.3795H48.3151V23.31H37.1264V21.3795ZM28.8963 21.3795H34.4255V23.31H28.8963V21.3795ZM23.881 21.3795H25.5527V23.31H23.881V21.3795ZM4.33333 71.431H6.7766V73.3615H4.33333V71.431ZM10.1202 71.431H12.5634V73.3615H10.1202V71.431ZM16.0358 71.431H18.4791V73.3615H16.0358V71.431ZM21.8227 71.431H24.2659V73.3615H21.8227V71.431ZM27.7383 71.431H30.1816V73.3615H27.7383V71.431ZM33.5252 71.431H35.9684V73.3615H33.5252V71.431ZM39.4408 71.431H41.8841V73.3615H39.4408V71.431ZM45.2292 71.431H47.6725V73.3615H45.2292V71.431ZM51.1449 71.431H53.5881V73.3615H51.1449V71.431ZM56.9317 71.431H59.375V73.3615H56.9317V71.431ZM4.33333 75.5482H6.7766V77.4786H4.33333V75.5482ZM10.1202 75.5482H12.5634V77.4786H10.1202V75.5482ZM16.0358 75.5482H18.4791V77.4786H16.0358V75.5482ZM21.8227 75.5482H24.2659V77.4786H21.8227V75.5482ZM27.7383 75.5482H30.1816V77.4786H27.7383V75.5482ZM33.5252 75.5482H35.9684V77.4786H33.5252V75.5482ZM39.4408 75.5482H41.8841V77.4786H39.4408V75.5482ZM45.2292 75.5482H47.6725V77.4786H45.2292V75.5482ZM51.1449 75.5482H53.5881V77.4786H51.1449V75.5482ZM56.9317 75.5482H59.375V77.4786H56.9317V75.5482ZM4.33333 79.5364H6.7766V81.4668H4.33333V79.5364ZM10.1202 79.5364H12.5634V81.4668H10.1202V79.5364ZM16.0358 79.5364H30.1816V81.4668H16.0358V79.5364ZM33.5252 79.5364H35.9684V81.4668H33.5252V79.5364ZM39.4408 79.5364H41.8841V81.4668H39.4408V79.5364ZM45.2292 79.5364H47.6725V81.4668H45.2292V79.5364ZM51.1449 79.5364H53.5881V81.4668H51.1449V79.5364ZM56.9317 79.5364H59.375V81.4668H56.9317V79.5364ZM26.5819 63.4531C26.1954 63.582 25.9392 64.096 26.0681 64.4827C26.1969 64.8694 26.5819 65.2546 26.9684 65.2546H57.447C57.9608 65.2546 58.3473 64.9968 58.3473 64.4827C58.4762 64.096 58.2185 63.582 57.8335 63.4531C53.9761 61.6515 52.3043 58.1774 51.5329 56.3759H84.0698V0.405701H0.348633V56.5048H32.8856C32.2414 58.1774 30.4423 61.6515 26.5834 63.4531H26.5819ZM54.2323 63.3242H30.3119C33.2705 60.8797 34.427 57.7922 34.9423 56.3759H49.6034C49.9899 57.7907 51.2752 61.0086 54.2338 63.3242H54.2323ZM2.27657 2.33612H82.2677V54.5743H2.14774V2.33612H2.27657ZM23.7521 63.3242H8.83488V59.4648H21.8242V57.5344H6.90543V65.2546H21.8242V68.2147H0.475949V84.5558H63.3627V68.3436H23.7521V63.3257V63.3242ZM61.3059 82.7528H2.40388V70.2725H61.4317V82.7528H61.3044H61.3059Z" fill="#2CB349"/>
</svg>
