<svg width="96" height="85" viewBox="0 0 96 85" fill="none" xmlns="http://www.w3.org/2000/svg">
<g clip-path="url(#clip0_83_1021)">
<path d="M93.8041 71.0358H91.6039V3.33215C91.6039 1.71889 90.2894 0.405701 88.6768 0.405701H7.49162C5.87896 0.405701 4.56448 1.71889 4.56448 3.33215V71.0358H2.37134C1.9073 71.0358 1.4715 71.2529 1.19272 71.6235C0.913946 71.996 0.825727 72.4743 0.954528 72.9209L2.65541 78.8214C3.64523 82.2509 6.54943 84.5543 9.88414 84.5543H86.2896C89.6243 84.5543 92.5285 82.2509 93.5201 78.8214L95.2209 72.9209C95.3497 72.4761 95.2615 71.9942 94.981 71.6235C94.7022 71.2529 94.2664 71.0358 93.8024 71.0358H93.8041ZM88.6538 3.33215V71.0323H7.51279L7.49162 3.35509L88.6556 3.33215H88.6538ZM55.3103 73.9852V74.843C55.3103 75.6567 54.6486 76.3186 53.8352 76.3186H42.3384C41.5251 76.3186 40.8634 75.6567 40.8634 74.843V73.9852H55.3103ZM90.6847 78.0007C90.0618 80.154 88.2974 81.6031 86.2896 81.6031H9.88237C7.87449 81.6031 6.10833 80.1558 5.48726 78.0007L4.32805 73.9852H37.9133V74.843C37.9133 77.284 39.8983 79.268 42.3367 79.268H53.8335C56.2736 79.268 58.2586 77.2823 58.2586 74.843V73.9852H91.8421L90.6847 78.0007Z" fill="#2CB349"/>
<path d="M84.9254 10.0093C84.9254 8.39608 83.6127 7.08112 82.0001 7.08112H14.1661C12.5534 7.08112 11.2407 8.39608 11.2407 10.0093V67.2886H84.9254V10.0093ZM81.9754 64.3374H14.1873L14.1643 10.0323L81.9754 10.0093V64.3374Z" fill="#2CB349"/>
<path d="M33.8472 45.9527L29.3091 49.7387L36.2944 56.7177L40.079 52.1833C41.2223 52.8293 42.4257 53.3271 43.6784 53.6765L43.1491 59.5559H53.0244L52.4951 53.6765C53.7531 53.3271 54.9564 52.8276 56.0944 52.1833L59.8755 56.716L66.8643 49.737L62.3245 45.9509C62.9685 44.8125 63.4678 43.607 63.8172 42.3449L69.7015 42.8745V33.0026L62.5415 33.6468L62.8062 36.5856L66.7514 36.2291V39.6462L61.4741 39.1696C61.2606 39.9692 61.1459 42.5373 59.1751 45.432L58.4234 46.5387L62.4921 49.9311L60.0749 52.3457L56.6802 48.279C55.9656 48.6903 54.0813 50.4236 50.6354 51.0802L49.3227 51.3308L49.7955 56.603H46.3744L46.849 51.3308C46.0921 51.126 43.539 51.0219 40.5907 49.0292L39.4879 48.2843L36.0968 52.3457L33.6795 49.9311L37.7482 46.5387L36.9948 45.432C35.9768 43.9335 35.2869 42.2673 34.9481 40.4811L34.6976 39.1679L29.4203 39.6444V36.2273L33.3672 36.5838L33.6319 33.645L26.4702 33.0008V42.8727L32.3545 42.3432C32.7038 43.6052 33.2032 44.8107 33.8472 45.9492V45.9527Z" fill="#2CB349"/>
<path d="M42.6157 37.9394C42.6157 40.9559 45.0682 43.4093 48.0836 43.4093C51.0989 43.4093 53.5515 40.9559 53.5515 37.9394C53.5515 35.4366 51.8541 33.345 49.5586 32.6972V23.3954C51.2718 22.7847 52.5069 21.1627 52.5069 19.2405C52.5069 16.7995 50.522 14.8156 48.0836 14.8156C45.6452 14.8156 43.6602 16.8012 43.6602 19.2405C43.6602 21.1609 44.8971 22.783 46.6085 23.3954V32.6972C44.3131 33.3468 42.6157 35.4383 42.6157 37.9394ZM48.0836 17.7649C48.897 17.7649 49.5586 18.4268 49.5586 19.2405C49.5586 20.0542 48.897 20.7161 48.0836 20.7161C47.2702 20.7161 46.6085 20.0542 46.6085 19.2405C46.6085 18.4268 47.2702 17.7649 48.0836 17.7649ZM48.0836 35.4189C49.4722 35.4189 50.6014 36.5503 50.6014 37.9394C50.6014 39.3285 49.4722 40.4599 48.0836 40.4599C46.695 40.4599 45.5658 39.3285 45.5658 37.9394C45.5658 36.5503 46.695 35.4189 48.0836 35.4189Z" fill="#2CB349"/>
<path d="M29.9579 22.0716V28.2122L36.7155 31.1616V37.9376C36.7155 44.2089 41.8146 49.3116 48.0853 49.3116C54.356 49.3116 59.4568 44.2089 59.4568 37.9376C59.4568 37.687 59.4533 37.4505 59.4268 37.2034L59.4533 31.1652L66.2145 28.2122V22.0716C67.9277 21.4609 69.1628 19.8389 69.1628 17.9167C69.1628 15.4757 67.1778 13.4918 64.7394 13.4918C62.301 13.4918 60.3161 15.4774 60.3161 17.9167C60.3161 19.8371 61.5529 21.4592 63.2644 22.0716V26.2813L56.512 29.2289L56.4768 37.387L56.4909 37.4893C56.512 37.6411 56.5068 37.7841 56.5068 37.9376C56.5068 42.5833 52.7292 46.3622 48.0853 46.3622C43.4414 46.3622 39.6638 42.5833 39.6638 37.9376V29.2324L32.9062 26.283V22.0734C34.6194 21.4627 35.8545 19.8406 35.8545 17.9185C35.8545 15.4774 33.8695 13.4935 31.4312 13.4935C28.9928 13.4935 27.0078 15.4792 27.0078 17.9185C27.0078 19.8406 28.2447 21.4627 29.9579 22.0734V22.0716ZM64.7394 16.4429C65.5528 16.4429 66.2145 17.1048 66.2145 17.9185C66.2145 18.7322 65.5528 19.3941 64.7394 19.3941C63.926 19.3941 63.2644 18.7322 63.2644 17.9185C63.2644 17.1048 63.926 16.4429 64.7394 16.4429ZM31.4329 16.4429C32.2463 16.4429 32.908 17.1048 32.908 17.9185C32.908 18.7322 32.2463 19.3941 31.4329 19.3941C30.6195 19.3941 29.9579 18.7322 29.9579 17.9185C29.9579 17.1048 30.6195 16.4429 31.4329 16.4429Z" fill="#2CB349"/>
<path d="M18.0381 12.9834H25.2756V15.9328H18.0381V12.9834Z" fill="#2CB349"/>
<path d="M17.2476 18.5663H25.2756V21.5157H17.2476V18.5663Z" fill="#2CB349"/>
<path d="M70.3145 52.8558H77.552V55.8052H70.3145V52.8558Z" fill="#2CB349"/>
<path d="M69.5249 58.4369H77.5529V61.3863H69.5249V58.4369Z" fill="#2CB349"/>
</g>
<defs>
<clipPath id="clip0_83_1021">
<rect width="94.3829" height="84.1486" fill="white" transform="translate(0.896973 0.405701)"/>
</clipPath>
</defs>
</svg>
