<svg width="85" height="85" viewBox="0 0 85 85" fill="none" xmlns="http://www.w3.org/2000/svg">
<path d="M1.56675 30.6468C2.29252 30.6468 2.88155 30.0578 2.88155 29.332V4.35039C2.88155 3.6246 3.47058 3.03707 4.19635 3.03556H31.8311C32.5825 2.03931 33.4705 1.15424 34.4698 0.405922H4.19635C3.15052 0.405922 2.14827 0.823659 1.40898 1.56296C0.669683 2.30227 0.251953 3.30454 0.251953 4.35039V29.332C0.251953 30.0578 0.840983 30.6468 1.56675 30.6468ZM80.4546 0.405922H50.1812C51.1805 1.15424 52.0685 2.03931 52.8198 3.03556H80.4546C81.1804 3.03556 81.7679 3.6246 81.7694 4.35039V29.332C81.7694 30.0578 82.3585 30.6468 83.0842 30.6468C83.81 30.6468 84.399 30.0578 84.399 29.332V4.35039C84.399 3.30454 83.9813 2.30227 83.242 1.56146C82.5027 0.822157 81.5005 0.405922 80.4546 0.404419V0.405922ZM52.8439 10.9245C52.8439 8.13407 51.7349 5.45934 49.7635 3.48636C47.7905 1.51488 45.1159 0.405922 42.3255 0.405922C39.5351 0.405922 36.8604 1.51488 34.8875 3.48636C32.9145 5.45784 31.8071 8.13407 31.8071 10.9245C31.8071 13.7149 32.916 16.3896 34.8875 18.3626C36.8589 20.3356 39.5351 21.4431 42.3255 21.4431C45.1159 21.4431 47.7905 20.3356 49.7635 18.3626C51.7364 16.3896 52.8439 13.7149 52.8439 10.9245ZM42.3255 18.8134C40.2323 18.8134 38.2263 17.9825 36.7477 16.5023C35.2692 15.0222 34.4367 13.0162 34.4367 10.9245C34.4367 8.8328 35.2677 6.82526 36.7477 5.34664C38.2278 3.86803 40.2338 3.03556 42.3255 3.03556C44.4171 3.03556 46.4247 3.86653 47.9032 5.34664C49.3818 6.82676 50.2143 8.8328 50.2143 10.9245C50.2113 13.0162 49.3803 15.0207 47.9017 16.4993C46.4231 17.9779 44.4171 18.8104 42.3255 18.8134ZM29.8357 40.5087V44.4532C29.8357 45.179 30.4247 45.768 31.1505 45.768C31.8762 45.768 32.4653 45.179 32.4653 44.4532V40.5087C32.4653 39.7829 31.8762 39.1939 31.1505 39.1939C30.4247 39.1939 29.8357 39.7829 29.8357 40.5087ZM52.1857 40.5087V44.4532C52.1857 45.179 52.7747 45.768 53.5005 45.768C54.2263 45.768 54.8153 45.179 54.8153 44.4532V40.5087C54.8153 39.7829 54.2263 39.1939 53.5005 39.1939C52.7747 39.1939 52.1857 39.7829 52.1857 40.5087ZM8.62459 60.189C4.06412 61.5759 0.251953 65.271 0.251953 70.664V83.2397C0.251953 83.9655 0.840983 84.5545 1.56675 84.5545C2.29252 84.5545 2.88155 83.9655 2.88155 83.2397V70.664C2.88155 65.8915 6.68319 63.0305 10.7899 62.3588C9.97845 61.7307 9.24968 61.0019 8.62459 60.1875V60.189ZM27.3789 60.189C26.7538 61.0034 26.0265 61.7322 25.2136 62.3603C29.3203 63.032 33.1219 65.893 33.1219 70.6655V83.2412C33.1219 83.967 33.7109 84.556 34.4367 84.556C35.1625 84.556 35.7515 83.967 35.7515 83.2412V70.6655C35.7515 65.2725 31.9393 61.5774 27.3789 60.1905V60.189ZM32.0836 19.1485C26.7027 20.3161 21.9469 24.4769 21.9469 30.767V41.8551C22.8755 42.1812 23.7575 42.6215 24.5765 43.1654V30.7655C24.5765 24.9743 29.5727 21.7421 34.5073 21.4686C33.6042 20.7999 32.7898 20.0216 32.0851 19.1485H32.0836ZM18.001 43.795C15.5592 43.795 13.2196 44.7642 11.4931 46.4908C9.76658 48.2158 8.79739 50.557 8.79739 52.9988C8.79739 55.4406 9.76658 57.7802 11.4931 59.5068C13.2181 61.2333 15.5592 62.2025 18.001 62.2025C20.4427 62.2025 22.7823 61.2333 24.5088 59.5068C26.2354 57.7817 27.2046 55.4406 27.2046 52.9988C27.2046 50.557 26.2354 48.2173 24.5088 46.4908C22.7823 44.7642 20.4412 43.795 18.001 43.795ZM18.001 59.5729C16.2579 59.5729 14.5855 58.8802 13.3518 57.648C12.1197 56.4143 11.427 54.7419 11.427 52.9988C11.427 51.2557 12.1197 49.5832 13.3518 48.3496C14.5855 47.1174 16.2579 46.4247 18.001 46.4247C19.744 46.4247 21.4164 47.1174 22.6501 48.3496C23.8823 49.5832 24.575 51.2557 24.575 52.9988C24.5735 54.7419 23.8808 56.4128 22.6471 57.645C21.4134 58.8772 19.744 59.5714 18.001 59.5729ZM9.45554 79.2952C8.72977 79.2952 8.14074 79.8842 8.14074 80.61V83.2397C8.14074 83.9655 8.72977 84.5545 9.45554 84.5545C10.1813 84.5545 10.7703 83.9655 10.7703 83.2397V80.61C10.7703 79.8842 10.1813 79.2952 9.45554 79.2952ZM26.5479 79.2952C25.8221 79.2952 25.2331 79.8842 25.2331 80.61V83.2397C25.2331 83.9655 25.8221 84.5545 26.5479 84.5545C27.2737 84.5545 27.8627 83.9655 27.8627 83.2397V80.61C27.8627 79.8842 27.2737 79.2952 26.5479 79.2952ZM57.2721 60.189C52.7116 61.5759 48.8995 65.271 48.8995 70.664V83.2397C48.8995 83.9655 49.4885 84.5545 50.2143 84.5545C50.94 84.5545 51.5291 83.9655 51.5291 83.2397V70.664C51.5291 65.8915 55.3307 63.0305 59.4374 62.3588C58.626 61.7307 57.8972 61.0019 57.2721 60.1875V60.189ZM76.0264 60.189C75.4013 61.0034 74.674 61.7322 73.8611 62.3603C77.9678 63.032 81.7694 65.893 81.7694 70.6655V83.2412C81.7694 83.967 82.3585 84.556 83.0842 84.556C83.81 84.556 84.399 83.967 84.399 83.2412V70.6655C84.399 65.2725 80.5869 61.5774 76.0264 60.1905V60.189ZM62.7041 41.8551V30.767C62.7041 24.4769 57.9483 20.3161 52.5674 19.15C51.8612 20.0231 51.0482 20.8029 50.1452 21.4701C55.0783 21.7436 60.076 24.9758 60.076 30.767V43.1669C60.8949 42.623 61.777 42.1827 62.7056 41.8566L62.7041 41.8551ZM66.65 43.795C64.2082 43.795 61.8686 44.7642 60.1421 46.4908C58.4156 48.2158 57.4464 50.557 57.4464 52.9988C57.4464 55.4406 58.4156 57.7802 60.1421 59.5068C61.8671 61.2333 64.2082 62.2025 66.65 62.2025C69.0918 62.2025 71.4314 61.2333 73.1579 59.5068C74.8844 57.7817 75.8536 55.4406 75.8536 52.9988C75.8536 50.557 74.8844 48.2173 73.1579 46.4908C71.4314 44.7642 69.0903 43.795 66.65 43.795ZM66.65 59.5729C64.907 59.5729 63.2345 58.8802 62.0009 57.648C60.7687 56.4143 60.076 54.7419 60.076 52.9988C60.076 51.2557 60.7687 49.5832 62.0009 48.3496C63.2345 47.1174 64.907 46.4247 66.65 46.4247C68.3931 46.4247 70.0655 47.1174 71.2991 48.3496C72.5313 49.5832 73.224 51.2557 73.224 52.9988C73.2225 54.7419 72.5298 56.4128 71.2961 57.645C70.0625 58.8772 68.3931 59.5714 66.65 59.5729ZM58.1031 79.2952C57.3773 79.2952 56.7883 79.8842 56.7883 80.61V83.2397C56.7883 83.9655 57.3773 84.5545 58.1031 84.5545C58.8288 84.5545 59.4179 83.9655 59.4179 83.2397V80.61C59.4179 79.8842 58.8288 79.2952 58.1031 79.2952ZM75.1954 79.2952C74.4697 79.2952 73.8806 79.8842 73.8806 80.61V83.2397C73.8806 83.9655 74.4697 84.5545 75.1954 84.5545C75.9212 84.5545 76.5102 83.9655 76.5102 83.2397V80.61C76.5102 79.8842 75.9212 79.2952 75.1954 79.2952ZM19.9739 10.9245H9.45554C8.72977 10.9245 8.14074 11.5135 8.14074 12.2393C8.14074 12.9651 8.72977 13.5541 9.45554 13.5541H19.9739C20.6997 13.5541 21.2887 12.9651 21.2887 12.2393C21.2887 11.5135 20.6997 10.9245 19.9739 10.9245ZM64.6771 13.5541H75.1954C75.9212 13.5541 76.5102 12.9651 76.5102 12.2393C76.5102 11.5135 75.9212 10.9245 75.1954 10.9245H64.6771C63.9513 10.9245 63.3623 11.5135 63.3623 12.2393C63.3623 12.9651 63.9513 13.5541 64.6771 13.5541ZM19.9739 16.1838H9.45554C8.72977 16.1838 8.14074 16.7728 8.14074 17.4986C8.14074 18.2244 8.72977 18.8134 9.45554 18.8134H19.9739C20.6997 18.8134 21.2887 18.2244 21.2887 17.4986C21.2887 16.7728 20.6997 16.1838 19.9739 16.1838ZM64.6771 18.8134H75.1954C75.9212 18.8134 76.5102 18.2244 76.5102 17.4986C76.5102 16.7728 75.9212 16.1838 75.1954 16.1838H64.6771C63.9513 16.1838 63.3623 16.7728 63.3623 17.4986C63.3623 18.2244 63.9513 18.8134 64.6771 18.8134Z" fill="white"/>
</svg>
