<svg width="96" height="100" viewBox="0 0 96 100" fill="none" xmlns="http://www.w3.org/2000/svg">
<g clip-path="url(#clip0_83_1031)">
<path d="M10.0593 37.548H15.6456C17.0927 40.9076 19.8039 43.568 23.1969 44.9513C26.5898 46.3366 30.3901 46.3366 33.7812 44.9513C37.1741 43.5661 39.8835 40.9076 41.3324 37.548H46.9301C47.8136 37.548 48.5295 36.8336 48.5295 35.9519V20.617C48.5295 13.4741 44.712 6.8727 38.5126 3.30218C32.3132 -0.270242 24.6763 -0.270242 18.4769 3.30218C12.2794 6.8727 8.45995 13.4741 8.45995 20.617V35.95C8.45995 36.8317 9.17585 37.5461 10.0593 37.5461V37.548ZM45.3308 20.617V34.3557H42.2596C42.3948 33.5937 42.4672 32.8203 42.4729 32.0469V21.7572C42.4519 16.7786 39.7845 12.1838 35.4681 9.69074C35.1882 9.52732 34.8645 9.45321 34.5409 9.47791C34.9731 8.11925 35.2491 6.71689 35.3615 5.29552C38.326 6.61807 40.845 8.76913 42.6138 11.4884C44.3826 14.2076 45.327 17.379 45.3308 20.6208V20.617ZM11.6587 20.617C11.6606 16.1629 13.437 11.8893 16.5919 8.73873C19.7487 5.58815 24.0289 3.81714 28.4938 3.81334C29.7466 3.81904 30.9937 3.96156 32.2142 4.23899C32.0371 8.37198 30.2607 12.275 27.2562 15.1254C24.2536 17.9757 20.259 19.551 16.114 19.5187C15.2305 19.5187 14.5146 20.2332 14.5146 21.1149C14.5146 21.9966 15.2305 22.7111 16.114 22.7111C19.7087 22.7168 23.2349 21.7249 26.2947 19.8455C29.3563 17.9662 31.8334 15.2736 33.4499 12.0698C33.5622 12.218 33.705 12.3416 33.8649 12.4328C37.1931 14.3615 39.2475 17.9035 39.2704 21.7439V32.0336C39.2666 35.4692 37.6177 38.6977 34.8341 40.7195C32.0504 42.7433 28.4652 43.3152 25.1884 42.2625C21.9117 41.2098 19.3337 38.6578 18.2541 35.3951V35.2887C17.9152 34.2359 17.7419 33.1376 17.7419 32.0317V26.0631C17.7419 25.1814 17.026 24.4669 16.1426 24.4669C15.2591 24.4669 14.5432 25.1814 14.5432 26.0631V32.0431C14.5508 32.8165 14.6175 33.588 14.745 34.3519H11.6529V20.617H11.6587ZM45.843 58.9579C46.3761 58.2548 46.2371 57.2553 45.5345 56.7232C40.9364 53.2401 35.3139 51.3703 29.541 51.4026H27.2371C20.2152 51.4102 13.4808 54.1959 8.51136 59.1479C3.54193 64.0999 0.739255 70.8153 0.720215 77.8252V97.9581C0.720215 98.8398 1.43612 99.5543 2.31957 99.5543C3.20302 99.5543 3.91892 98.8398 3.91892 97.9581V77.8252C3.92464 71.6552 6.38269 65.7379 10.7543 61.375C15.1258 57.012 21.0549 54.557 27.2371 54.5513H29.5733C34.657 54.5323 39.6055 56.1892 43.6477 59.2657C44.3445 59.7693 45.3136 59.6325 45.8449 58.9579H45.843ZM93.5037 62.9065H81.0935V54.3289C81.0935 53.4472 80.3776 52.7327 79.4941 52.7327H58.575C57.6915 52.7327 56.9756 53.4472 56.9756 54.3289V62.8419H44.5749C43.6914 62.8419 42.9755 63.5564 42.9755 64.4381V97.9581C42.9755 98.8398 43.6914 99.5543 44.5749 99.5543H93.5037C94.3872 99.5543 95.1031 98.8398 95.1031 97.9581V64.5027C95.1031 63.621 94.3872 62.9065 93.5037 62.9065ZM60.1838 55.9669H77.8948V62.9046H60.1838V55.9669ZM46.1723 66.097H91.9025V72.7269H74.8427V69.4186C74.8427 68.5369 74.1268 67.8224 73.2433 67.8224H64.8524C63.969 67.8224 63.2531 68.5369 63.2531 69.4186V72.7269H46.1933L46.1723 66.097ZM71.6135 72.7269V77.6428H66.4518V71.0129H71.6135V72.7269ZM91.872 96.3296H46.1743V75.9193H63.234V79.239C63.234 80.1207 63.9499 80.8352 64.8334 80.8352H73.1938C74.0773 80.8352 74.7932 80.1207 74.7932 79.239V75.9193H91.853L91.8739 96.3296H91.872ZM65.4179 30.6939C66.2918 31.3533 66.7983 32.3889 66.7831 33.4816V33.7362C66.0957 33.9281 65.6216 34.5514 65.6216 35.264C65.6216 35.9766 66.0957 36.5998 66.7831 36.7918V39.8891C66.7831 40.7708 67.499 41.4853 68.3824 41.4853H68.8718V44.4003C68.8718 45.282 69.5877 45.9964 70.4711 45.9964H75.9622C76.8457 45.9964 77.5616 45.282 77.5616 44.4003V41.4853H78.0528C78.9363 41.4853 79.6522 40.7708 79.6522 39.8891V36.7937C80.3395 36.6017 80.8136 35.9785 80.8136 35.2659C80.8136 34.5533 80.3395 33.93 79.6522 33.7381V33.4721C79.6522 32.3623 80.1796 31.3172 81.0706 30.6521C84.1018 28.4403 86.0534 25.0503 86.438 21.3239C86.8226 17.5957 85.6079 13.8807 83.0927 11.0969C80.5775 8.31498 76.998 6.72639 73.2433 6.72639C69.4886 6.72639 65.9091 8.31498 63.394 11.0969C60.8788 13.8788 59.664 17.5957 60.0487 21.3239C60.4333 25.0522 62.3849 28.4422 65.416 30.6521V30.6939H65.4179ZM76.4535 38.291H69.9818V36.8545H76.4535V38.291ZM74.321 42.8022H72.0705V41.4834H74.3629L74.321 42.8022ZM63.2207 18.7643C63.6415 15.418 65.7187 12.505 68.7499 11.0095C71.7811 9.51592 75.3606 9.63943 78.2794 11.3382C81.2001 13.0389 83.0698 16.0869 83.2583 19.456C83.4468 22.8251 81.9274 26.0631 79.2142 28.0754C77.5045 29.3448 76.4973 31.3438 76.4953 33.4721V33.664H69.9818V33.4835C69.9799 31.3856 68.9822 29.4113 67.2952 28.1628C65.8292 27.1082 64.6773 25.6792 63.9614 24.0241C63.2436 22.3709 62.9884 20.5524 63.2226 18.7662L63.2207 18.7643ZM68.6909 24.5847C68.906 24.9914 69.085 25.4151 69.224 25.8503C69.4563 26.4906 70.0675 26.9163 70.7491 26.9144C70.9224 26.9106 71.0956 26.8821 71.2613 26.8289C72.0933 26.5419 72.5388 25.6412 72.2628 24.807C72.0609 24.2237 71.8191 23.6555 71.5393 23.1044L69.641 19.4332C69.3116 18.8213 69.3116 18.0859 69.641 17.4741C69.9132 16.9648 70.4121 16.6171 70.9833 16.5373C71.0785 16.6323 71.1965 16.7824 71.2822 16.8774C71.5297 17.1624 71.8039 17.4228 72.1028 17.6546C72.1752 17.723 72.2533 17.7838 72.337 17.8351C72.3827 17.8655 72.4322 17.8864 72.4855 17.8997L72.6455 17.9643H72.9653C73.4832 18.0023 73.9878 17.7876 74.3191 17.3905C74.5457 17.1909 74.7589 16.9781 74.9588 16.752C75.0445 16.657 75.1607 16.5068 75.2578 16.4118C75.8289 16.4916 76.3297 16.8394 76.6001 17.3486C76.9295 17.9586 76.9295 18.6959 76.6001 19.3078L74.7018 22.979C74.4219 23.5282 74.1782 24.0982 73.9783 24.6816C73.845 25.0921 73.8831 25.5367 74.083 25.9168C74.2829 26.2968 74.6313 26.5818 75.0426 26.7035C75.2044 26.7586 75.3739 26.7871 75.5434 26.789C76.2269 26.7928 76.8381 26.3671 77.0685 25.7248C77.2074 25.2878 77.3864 24.864 77.6016 24.4593L79.4999 20.7976C80.3091 19.2318 80.2767 17.3657 79.4142 15.8285C78.6088 14.3482 77.1084 13.3753 75.4253 13.2423C75.2806 13.2309 75.134 13.2309 74.9874 13.2423C74.2524 13.2746 73.5613 13.5995 73.0682 14.1468C72.5826 13.5976 71.8915 13.2708 71.1604 13.2423C71.0137 13.2309 70.869 13.2309 70.7224 13.2423C69.0412 13.3753 67.5409 14.3482 66.7336 15.8285C65.8711 17.3657 65.8387 19.2318 66.6479 20.7976L68.6833 24.5847H68.6909Z" fill="#2CB349"/>
</g>
<defs>
<clipPath id="clip0_83_1031">
<rect width="94.3829" height="98.9314" fill="white" transform="translate(0.719727 0.622864)"/>
</clipPath>
</defs>
</svg>
