<svg width="118" height="25" viewBox="0 0 118 25" fill="none" xmlns="http://www.w3.org/2000/svg">
<path d="M40.858 1.25334C39.0442 -1.75561 28.4882 0.838456 17.2798 7.0519C6.07101 13.2629 -1.54738 20.7378 0.267259 23.7476C1.82654 26.3347 9.8428 24.7754 19.1826 20.3468C19.5989 20.127 19.5705 19.6542 19.0267 19.8242C13.2698 21.8588 8.46908 21.9845 7.22491 19.8242C5.57451 16.9591 10.8053 11.1564 18.9081 6.86376C27.0108 2.5703 34.9184 1.41231 36.5688 4.2775C37.324 5.58952 36.634 7.51649 34.8879 9.63405C34.8808 9.6435 34.8766 9.65377 34.8649 9.66568C34.2192 10.4347 34.6894 10.6663 35.1512 10.2925C39.6193 6.49529 41.9475 3.06488 40.858 1.25334Z" fill="#EF373E"/>
<path d="M24.0488 21.0663C23.0508 20.8088 22.235 20.4592 21.6082 20.0176L22.7416 17.5648C23.4077 17.9711 24.1174 18.28 24.8655 18.4961C25.6157 18.7109 26.3683 18.8198 27.1244 18.8198C27.8929 18.8198 28.4822 18.7162 28.8935 18.5141C29.3018 18.3108 29.507 18.0249 29.507 17.6581C29.507 17.3245 29.3223 17.0526 28.9507 16.8345C28.5788 16.6225 27.8779 16.4085 26.854 16.2015C25.5613 15.9546 24.5562 15.6498 23.8374 15.2883C23.1198 14.9264 22.6187 14.4988 22.3278 14.0079C22.0399 13.5137 21.8961 12.9202 21.8961 12.2194C21.8961 11.4208 22.1335 10.6983 22.6095 10.0541C23.0839 9.40758 23.7475 8.90561 24.6072 8.54125C25.4648 8.17853 26.4432 7.99902 27.5469 7.99902C28.5349 7.99902 29.4919 8.13047 30.4201 8.39419C31.3484 8.65832 32.0751 9.00543 32.6001 9.43552L31.4867 11.8887C30.8853 11.4824 30.2505 11.1735 29.5843 10.9554C28.9177 10.7418 28.2524 10.6338 27.5853 10.6338C26.9325 10.6338 26.4064 10.7545 26.0089 10.9924C25.6111 11.2327 25.4151 11.5568 25.4151 11.9614C25.4151 12.1828 25.4844 12.366 25.6253 12.5147C25.7661 12.661 26.0302 12.8072 26.411 12.9464C26.798 13.0886 27.3739 13.2381 28.1424 13.3991C29.3849 13.6571 30.3629 13.9676 31.0746 14.3279C31.7834 14.6914 32.287 15.117 32.5817 15.6013C32.8776 16.0868 33.0247 16.6669 33.0247 17.3426C33.0247 18.6209 32.5048 19.6286 31.4679 20.3565C30.4298 21.0885 28.9691 21.4529 27.0851 21.4529C26.0616 21.4529 25.0456 21.3239 24.0488 21.0663Z" fill="#2CB34A"/>
<path d="M45.1321 11.9247V21.288H41.7101V20.0162C41.4318 20.459 41.0205 20.8074 40.4814 21.0571C39.9435 21.3094 39.3513 21.4375 38.714 21.4375C37.8794 21.4375 37.1376 21.2399 36.4827 20.8464C35.832 20.4525 35.3209 19.8914 34.9543 19.1602C34.5916 18.4306 34.406 17.5836 34.406 16.6261C34.406 15.655 34.5932 14.7956 34.9669 14.0447C35.3371 13.2947 35.8479 12.7105 36.5015 12.2932C37.156 11.8766 37.8928 11.668 38.714 11.668C39.3513 11.668 39.941 11.7978 40.4714 12.0631C41.0047 12.3273 41.4159 12.6805 41.7101 13.1217V11.9247H45.1321ZM41.2115 18.3407C41.545 17.9328 41.7101 17.3511 41.7101 16.5891C41.7101 15.8144 41.545 15.2208 41.2115 14.81C40.8789 14.3988 40.4045 14.1902 39.7885 14.1902C39.1867 14.1902 38.714 14.4038 38.3671 14.8273C38.0202 15.2516 37.8481 15.8501 37.8481 16.6261C37.8481 17.3725 38.0123 17.9488 38.3475 18.3493C38.6818 18.7477 39.1616 18.947 39.7885 18.947C40.4045 18.947 40.8789 18.7445 41.2115 18.3407Z" fill="#2CB34A"/>
<path d="M47.4089 11.9248V11.6681C47.4089 10.4008 47.7541 9.4121 48.437 8.69981C49.1237 7.98711 50.1204 7.62891 51.4261 7.62891C52.1708 7.62891 52.7743 7.71681 53.2336 7.88811V10.4505C52.8616 10.3639 52.5532 10.3212 52.3125 10.3212C51.9021 10.3212 51.5615 10.4341 51.2915 10.6625C51.024 10.8901 50.8894 11.2355 50.8894 11.7026V11.9248H52.7902V14.3768H50.8894V21.2881H47.4089V14.3768C47.4089 14.3768 47.4599 11.9248 47.4089 11.9248Z" fill="#2CB34A"/>
<path d="M64.5735 11.9247V21.288H61.152V20.0162C60.8703 20.459 60.4607 20.8074 59.9208 21.0571C59.3846 21.3094 58.7944 21.4375 58.1533 21.4375C57.3213 21.4375 56.5794 21.2399 55.925 20.8464C55.2722 20.4525 54.764 19.8914 54.3958 19.1602C54.0309 18.4306 53.8491 17.5836 53.8491 16.6261C53.8491 15.655 54.0355 14.7956 54.4054 14.0447C54.7773 13.2947 55.291 12.7105 55.9438 12.2932C56.5991 11.8766 57.3338 11.668 58.1533 11.668C58.7944 11.668 59.3812 11.7978 59.9116 12.0631C60.4432 12.3273 60.8578 12.6805 61.152 13.1217V11.9247H64.5735ZM60.6509 18.3407C60.9861 17.9328 61.152 17.3511 61.152 16.5891C61.152 15.8144 60.9861 15.2208 60.6509 14.81C60.319 14.3988 59.8464 14.1902 59.2295 14.1902C58.6285 14.1902 58.1534 14.4038 57.8081 14.8273C57.4629 15.2516 57.2899 15.8501 57.2899 16.6261C57.2899 17.3725 57.4558 17.9488 57.7902 18.3493C58.122 18.7477 58.6026 18.947 59.2295 18.947C59.8464 18.947 60.319 18.7445 60.6509 18.3407Z" fill="#2CB34A"/>
<path d="M73.8827 11.9056V14.9487C73.334 14.7014 72.8053 14.5782 72.2946 14.5782C70.8402 14.5782 70.1118 15.249 70.1118 16.5889V21.2878H66.6463V14.6143C66.6463 13.6091 66.5949 12.7104 66.4946 11.9245H69.7486L69.9601 13.4912C70.1883 12.9141 70.5585 12.4709 71.0701 12.1624C71.5808 11.8576 72.1525 11.7031 72.7903 11.7031C73.2638 11.7031 73.627 11.7713 73.8827 11.9056Z" fill="#2CB34A"/>
<path d="M78.3898 11.9243H74.9114V21.2876H78.3898V11.9243Z" fill="#2CB34A"/>
<path d="M81.4277 20.1452C80.4941 19.2859 80.0269 18.1123 80.0269 16.6257C80.0269 15.6423 80.2517 14.7751 80.7056 14.0275C81.1619 13.2774 81.7997 12.697 82.6201 12.2854C83.4384 11.8734 84.3883 11.668 85.4645 11.668C86.1796 11.668 86.8859 11.7682 87.5796 11.9699C88.2688 12.1732 88.8192 12.4472 89.23 12.7927L88.3457 15.0922C88.0013 14.8248 87.5955 14.61 87.1375 14.451C86.6736 14.29 86.2331 14.2099 85.8085 14.2099C85.0909 14.2099 84.5405 14.4083 84.1572 14.7997C83.7719 15.1925 83.5792 15.7774 83.5792 16.5513C83.5792 17.3375 83.7719 17.9311 84.1572 18.332C84.5405 18.7297 85.0988 18.9289 85.8302 18.9289C86.2519 18.9289 86.6907 18.8496 87.1462 18.6886C87.6001 18.5304 88.0013 18.314 88.3457 18.0449L89.23 20.3103C88.8083 20.6685 88.2458 20.9442 87.55 21.1405C86.8504 21.3373 86.1031 21.4351 85.3103 21.4351C83.6561 21.4351 82.3639 21.0054 81.4277 20.1452Z" fill="#2CB34A"/>
<path d="M92.441 20.8454C91.6331 20.4535 91.0108 19.8874 90.5758 19.1493C90.1386 18.4111 89.9221 17.5456 89.9221 16.5511C89.9221 15.5537 90.1386 14.6898 90.5758 13.9504C91.0108 13.2147 91.6331 12.6503 92.441 12.2568C93.2471 11.8624 94.195 11.6665 95.2858 11.6665C96.3611 11.6665 97.2989 11.8661 98.0989 12.2662C98.9013 12.6647 99.5186 13.2299 99.9528 13.9623C100.39 14.6911 100.606 15.5537 100.606 16.5511C100.606 17.5456 100.39 18.4103 99.9528 19.1406C99.5186 19.8718 98.9013 20.4375 98.0989 20.8351C97.2989 21.236 96.3611 21.4365 95.2858 21.4365C94.195 21.4365 93.2471 21.2397 92.441 20.8454ZM97.1706 16.5511C97.1706 15.7394 97.0102 15.1425 96.6955 14.7543C96.3841 14.3678 95.9114 14.1751 95.2858 14.1751C94.6426 14.1751 94.1637 14.3678 93.8427 14.7543C93.5226 15.1425 93.3604 15.7394 93.3604 16.5511C93.3604 17.3739 93.5226 17.9802 93.8427 18.3675C94.1637 18.7541 94.6426 18.9484 95.2858 18.9484C96.5412 18.9484 97.1706 18.1486 97.1706 16.5511Z" fill="#2CB34A"/>
<path d="M117.184 12.6616C117.73 13.3255 118 14.3397 118 15.7022V21.2876H114.524V15.7955C114.524 15.2409 114.438 14.8425 114.263 14.5981C114.089 14.3508 113.797 14.2292 113.389 14.2292C112.901 14.2292 112.524 14.4021 112.254 14.7451C111.984 15.0898 111.851 15.5712 111.851 16.2013V21.2876H108.373V15.7955C108.373 15.2409 108.281 14.8425 108.104 14.5981C107.922 14.3508 107.635 14.2292 107.239 14.2292C106.753 14.2292 106.375 14.4021 106.115 14.7451C105.851 15.0898 105.721 15.5712 105.721 16.2013V21.2876H102.238V14.6149C102.238 13.6093 102.192 12.7105 102.087 11.9243H105.354L105.527 13.2347C105.823 12.729 106.237 12.3408 106.767 12.0714C107.299 11.8031 107.911 11.668 108.601 11.668C109.999 11.668 110.948 12.234 111.447 13.362C111.793 12.8457 112.254 12.4341 112.821 12.1272C113.391 11.8208 114.01 11.668 114.675 11.668C115.802 11.668 116.639 11.9986 117.184 12.6616Z" fill="#2CB34A"/>
<path d="M78.3898 7.33398H74.9114V10.3376H78.3898V7.33398Z" fill="#2CB34A"/>
</svg>
